umbra-0.ufo
<glyph name="exclam" format="1">
  <advance width="291"/>
  <unicode hex="0021"/>
  <outline>
    <contour>
      <point x="518" y="469" type="line"/>
      <point x="488" y="749" type="line"/>
      <point x="648" y="749" type="line"/>
      <point x="618" y="469" type="line"/>
    </contour>
    <contour>
      <point x="568" y="221" type="line"/>
      <point x="463" y="326" type="line"/>
      <point x="568" y="432" type="line"/>
      <point x="674" y="326" type="line"/>
    </contour>
  </outline>
</glyph>
<glyph name="ampersand" format="1">
  <advance width="487"/>
  <unicode hex="0026"/>
  <outline>
    <contour>
      <point x="713" y="458" type="line"/>
      <point x="680" y="458" type="line" smooth="yes"/>
      <point x="632" y="458"/>
      <point x="598" y="447"/>
      <point x="598" y="409" type="curve" smooth="yes"/>
      <point x="598" y="378"/>
      <point x="625" y="359"/>
      <point x="658" y="359" type="curve" smooth="yes"/>
      <point x="681" y="359"/>
      <point x="713" y="372"/>
      <point x="713" y="403" type="curve" smooth="yes"/>
    </contour>
    <contour>
      <point x="623" y="606" type="curve" smooth="yes"/>
      <point x="623" y="578"/>
      <point x="632" y="553"/>
      <point x="680" y="553" type="curve" smooth="yes"/>
      <point x="880" y="553" type="line"/>
      <point x="880" y="458" type="line"/>
      <point x="828" y="458" type="line"/>
      <point x="832" y="442"/>
      <point x="833" y="420"/>
      <point x="833" y="376" type="curve" smooth="yes"/>
      <point x="833" y="281"/>
      <point x="739" y="234"/>
      <point x="650" y="234" type="curve" smooth="yes"/>
      <point x="563" y="234"/>
      <point x="458" y="284"/>
      <point x="458" y="401" type="curve" smooth="yes"/>
      <point x="458" y="457"/>
      <point x="489" y="496"/>
      <point x="543" y="516" type="curve"/>
      <point x="498" y="534"/>
      <point x="472" y="567"/>
      <point x="472" y="622" type="curve" smooth="yes"/>
      <point x="472" y="719"/>
      <point x="557" y="764"/>
      <point x="644" y="764" type="curve" smooth="yes"/>
      <point x="731" y="764"/>
      <point x="791" y="714"/>
      <point x="811" y="687" type="curve"/>
      <point x="771" y="597" type="line"/>
      <point x="731" y="635"/>
      <point x="693" y="644"/>
      <point x="665" y="644" type="curve" smooth="yes"/>
      <point x="637" y="644"/>
      <point x="623" y="629"/>
    </contour>
  </outline>
</glyph>
<glyph name="quotesingle" format="1">
  <advance width="220"/>
  <unicode hex="0027"/>
  <outline>
    <contour>
      <point x="468" y="489" type="line"/>
      <point x="468" y="749" type="line"/>
      <point x="598" y="749" type="line"/>
      <point x="598" y="609" type="line"/>
    </contour>
  </outline>
</glyph>
<glyph name="parenright" format="1">
  <advance width="232"/>
  <unicode hex="0029"/>
  <outline>
    <contour>
      <point x="513" y="800" type="line"/>
      <point x="588" y="715"/>
      <point x="625" y="610"/>
      <point x="625" y="505" type="curve" smooth="yes"/>
      <point x="625" y="400"/>
      <point x="588" y="295"/>
      <point x="513" y="210" type="curve"/>
      <point x="423" y="210" type="line"/>
      <point x="473" y="285"/>
      <point x="497" y="395"/>
      <point x="497" y="505" type="curve" smooth="yes"/>
      <point x="497" y="615"/>
      <point x="473" y="725"/>
      <point x="423" y="800" type="curve"/>
    </contour>
  </outline>
</glyph>
<glyph name="plus" format="1">
  <advance width="560"/>
  <unicode hex="002B"/>
  <outline>
    <contour>
      <point x="508" y="439" type="line"/>
      <point x="508" y="549" type="line"/>
      <point x="633" y="549" type="line"/>
      <point x="633" y="669" type="line"/>
      <point x="773" y="669" type="line"/>
      <point x="773" y="549" type="line"/>
      <point x="898" y="549" type="line"/>
      <point x="898" y="439" type="line"/>
      <point x="773" y="439" type="line"/>
      <point x="773" y="319" type="line"/>
      <point x="633" y="319" type="line"/>
      <point x="633" y="439" type="line"/>
    </contour>
  </outline>
</glyph>
<glyph name="period" format="1">
  <advance width="291"/>
  <unicode hex="002E"/>
  <outline>
    <contour>
      <point x="568" y="221" type="line"/>
      <point x="463" y="326" type="line"/>
      <point x="568" y="432" type="line"/>
      <point x="674" y="326" type="line"/>
    </contour>
  </outline>
</glyph>
<glyph name="four" format="1">
  <advance width="490"/>
  <unicode hex="0034"/>
  <outline>
    <contour>
      <point x="678" y="344" type="line"/>
      <point x="601" y="344"/>
      <point x="525" y="344"/>
      <point x="448" y="344" type="curve"/>
      <point x="428" y="414" type="line"/>
      <point x="718" y="749" type="line"/>
      <point x="818" y="749" type="line"/>
      <point x="818" y="649"/>
      <point x="818" y="549"/>
      <point x="818" y="449" type="curve"/>
      <point x="888" y="449" type="line"/>
      <point x="888" y="344" type="line"/>
      <point x="818" y="344" type="line"/>
      <point x="818" y="249" type="line"/>
      <point x="678" y="249" type="line"/>
    </contour>
    <contour>
      <point x="689" y="449" type="line"/>
      <point x="689" y="581" type="line"/>
      <point x="575" y="449" type="line"/>
    </contour>
  </outline>
</glyph>
<glyph name="five" format="1">
  <advance width="449"/>
  <unicode hex="0035"/>
  <outline>
    <contour>
      <point x="488" y="488" type="line"/>
      <point x="518" y="749" type="line"/>
      <point x="818" y="749" type="line"/>
      <point x="808" y="634" type="line"/>
      <point x="625" y="634" type="line"/>
      <point x="619" y="583" type="line"/>
      <point x="734" y="582"/>
      <point x="837" y="527"/>
      <point x="837" y="401" type="curve" smooth="yes"/>
      <point x="837" y="274"/>
      <point x="722" y="234"/>
      <point x="635" y="234" type="curve" smooth="yes"/>
      <point x="558" y="234"/>
      <point x="488" y="269"/>
      <point x="448" y="306" type="curve"/>
      <point x="468" y="431" type="line"/>
      <point x="508" y="393"/>
      <point x="557" y="359"/>
      <point x="615" y="359" type="curve" smooth="yes"/>
      <point x="663" y="359"/>
      <point x="692" y="378"/>
      <point x="692" y="429" type="curve" smooth="yes"/>
      <point x="692" y="487"/>
      <point x="613" y="488"/>
      <point x="565" y="488" type="curve" smooth="yes"/>
    </contour>
  </outline>
</glyph>
<glyph name="colon" format="1">
  <advance width="291"/>
  <unicode hex="003A"/>
  <outline>
    <contour>
      <point x="568" y="506" type="line"/>
      <point x="463" y="611" type="line"/>
      <point x="568" y="717" type="line"/>
      <point x="674" y="611" type="line"/>
    </contour>
    <contour>
      <point x="568" y="221" type="line"/>
      <point x="463" y="326" type="line"/>
      <point x="568" y="432" type="line"/>
      <point x="674" y="326" type="line"/>
    </contour>
  </outline>
</glyph>
<glyph name="at" format="1">
  <advance width="700"/>
  <unicode hex="0040"/>
  <outline>
    <contour>
      <point x="1103" y="469" type="curve" smooth="yes"/>
      <point x="1103" y="339"/>
      <point x="1056" y="237"/>
      <point x="929" y="237" type="curve" smooth="yes"/>
      <point x="882" y="237"/>
      <point x="837" y="248"/>
      <point x="822" y="294" type="curve"/>
      <point x="798" y="267"/>
      <point x="766" y="249"/>
      <point x="730" y="249" type="curve" smooth="yes"/>
      <point x="623" y="249"/>
      <point x="578" y="344"/>
      <point x="578" y="431" type="curve" smooth="yes"/>
      <point x="578" y="518"/>
      <point x="633" y="614"/>
      <point x="720" y="614" type="curve" smooth="yes"/>
      <point x="757" y="614"/>
      <point x="790" y="597"/>
      <point x="817" y="571" type="curve"/>
      <point x="817" y="604" type="line"/>
      <point x="952" y="604" type="line"/>
      <point x="952" y="359" type="line" smooth="yes"/>
      <point x="952" y="331"/>
      <point x="954" y="322"/>
      <point x="969" y="322" type="curve" smooth="yes"/>
      <point x="997" y="322"/>
      <point x="1018" y="389"/>
      <point x="1018" y="469" type="curve" smooth="yes"/>
      <point x="1018" y="642"/>
      <point x="900" y="699"/>
      <point x="778" y="699" type="curve" smooth="yes"/>
      <point x="666" y="699"/>
      <point x="528" y="612"/>
      <point x="528" y="439" type="curve" smooth="yes"/>
      <point x="528" y="236"/>
      <point x="656" y="184"/>
      <point x="808" y="184" type="curve"/>
      <point x="808" y="119" type="line"/>
      <point x="583" y="119"/>
      <point x="443" y="220"/>
      <point x="443" y="439" type="curve" smooth="yes"/>
      <point x="443" y="628"/>
      <point x="593" y="769"/>
      <point x="778" y="769" type="curve" smooth="yes"/>
      <point x="973" y="769"/>
      <point x="1103" y="638"/>
    </contour>
    <contour>
      <point x="817" y="378" type="curve"/>
      <point x="817" y="485" type="line"/>
      <point x="800" y="503"/>
      <point x="776" y="509"/>
      <point x="760" y="509" type="curve" smooth="yes"/>
      <point x="732" y="509"/>
      <point x="713" y="479"/>
      <point x="713" y="431" type="curve" smooth="yes"/>
      <point x="713" y="383"/>
      <point x="732" y="354"/>
      <point x="760" y="354" type="curve" smooth="yes"/>
      <point x="776" y="354"/>
      <point x="800" y="361"/>
    </contour>
  </outline>
</glyph>
<glyph name="A" format="1">
  <advance width="580"/>
  <unicode hex="0041"/>
  <outline>
    <contour>
      <point x="433" y="249" type="line"/>
      <point x="633" y="749" type="line"/>
      <point x="793" y="749" type="line"/>
      <point x="993" y="249" type="line"/>
      <point x="843" y="249" type="line"/>
      <point x="812" y="334" type="line"/>
      <point x="614" y="334" type="line"/>
      <point x="583" y="249" type="line"/>
    </contour>
    <contour>
      <point x="713" y="610" type="line"/>
      <point x="655" y="449" type="line"/>
      <point x="771" y="449" type="line"/>
    </contour>
  </outline>
</glyph>
<glyph name="E" format="1">
  <advance width="455"/>
  <unicode hex="0045"/>
  <outline>
    <contour>
      <point x="468" y="249" type="curve"/>
      <point x="468" y="749" type="line"/>
      <point x="595" y="749"/>
      <point x="721" y="749"/>
      <point x="848" y="749" type="curve"/>
      <point x="848" y="634" type="line"/>
      <point x="608" y="634" type="line"/>
      <point x="608" y="559" type="line"/>
      <point x="818" y="559" type="line"/>
      <point x="818" y="444" type="line"/>
      <point x="608" y="444" type="line"/>
      <point x="608" y="369" type="line"/>
      <point x="848" y="369" type="line"/>
      <point x="848" y="249" type="line"/>
      <point x="721" y="249"/>
      <point x="595" y="249"/>
    </contour>
  </outline>
</glyph>
<glyph name="O" format="1">
  <advance width="610"/>
  <unicode hex="004F"/>
  <outline>
    <contour>
      <point x="453" y="499" type="curve" smooth="yes"/>
      <point x="453" y="648"/>
      <point x="553" y="769"/>
      <point x="728" y="769" type="curve" smooth="yes"/>
      <point x="903" y="769"/>
      <point x="1003" y="648"/>
      <point x="1003" y="499" type="curve" smooth="yes"/>
      <point x="1003" y="350"/>
      <point x="903" y="229"/>
      <point x="728" y="229" type="curve" smooth="yes"/>
      <point x="553" y="229"/>
      <point x="453" y="350"/>
    </contour>
    <contour>
      <point x="598" y="499" type="curve" smooth="yes"/>
      <point x="598" y="406"/>
      <point x="666" y="354"/>
      <point x="728" y="354" type="curve" smooth="yes"/>
      <point x="790" y="354"/>
      <point x="858" y="406"/>
      <point x="858" y="499" type="curve" smooth="yes"/>
      <point x="858" y="592"/>
      <point x="790" y="644"/>
      <point x="728" y="644" type="curve" smooth="yes"/>
      <point x="666" y="644"/>
      <point x="598" y="592"/>
    </contour>
  </outline>
</glyph>
<glyph name="Q" format="1">
  <advance width="610"/>
  <unicode hex="0051"/>
  <outline>
    <contour>
      <point x="453" y="499" type="curve" smooth="yes"/>
      <point x="453" y="648"/>
      <point x="553" y="769"/>
      <point x="728" y="769" type="curve" smooth="yes"/>
      <point x="903" y="769"/>
      <point x="1003" y="648"/>
      <point x="1003" y="499" type="curve" smooth="yes"/>
      <point x="1003" y="383"/>
      <point x="943" y="284"/>
      <point x="834" y="246" type="curve"/>
      <point x="988" y="99" type="line"/>
      <point x="788" y="99" type="line"/>
      <point x="674" y="233" type="line"/>
      <point x="533" y="255"/>
      <point x="453" y="366"/>
    </contour>
    <contour>
      <point x="598" y="499" type="curve" smooth="yes"/>
      <point x="598" y="406"/>
      <point x="666" y="354"/>
      <point x="728" y="354" type="curve" smooth="yes"/>
      <point x="790" y="354"/>
      <point x="858" y="406"/>
      <point x="858" y="499" type="curve" smooth="yes"/>
      <point x="858" y="592"/>
      <point x="790" y="644"/>
      <point x="728" y="644" type="curve" smooth="yes"/>
      <point x="666" y="644"/>
      <point x="598" y="592"/>
    </contour>
  </outline>
</glyph>
<glyph name="T" format="1">
  <advance width="480"/>
  <unicode hex="0054"/>
  <outline>
    <contour>
      <point x="443" y="629" type="line"/>
      <point x="443" y="749" type="line"/>
      <point x="883" y="749" type="line"/>
      <point x="883" y="629" type="line"/>
      <point x="733" y="629" type="line"/>
      <point x="733" y="249" type="line"/>
      <point x="593" y="249" type="line"/>
      <point x="593" y="629" type="line"/>
    </contour>
  </outline>
</glyph>
<glyph name="X" format="1">
  <advance width="620"/>
  <unicode hex="0058"/>
  <outline>
    <contour>
      <point x="1023" y="249" type="line"/>
      <point x="853" y="249" type="line"/>
      <point x="733" y="403" type="line"/>
      <point x="613" y="249" type="line"/>
      <point x="443" y="249" type="line"/>
      <point x="648" y="512" type="line"/>
      <point x="463" y="749" type="line"/>
      <point x="633" y="749" type="line"/>
      <point x="733" y="621" type="line"/>
      <point x="833" y="749" type="line"/>
      <point x="1003" y="749" type="line"/>
      <point x="818" y="512" type="line"/>
    </contour>
  </outline>
</glyph>
<glyph name="backslash" format="1">
  <advance width="460"/>
  <unicode hex="005C"/>
  <outline>
    <contour>
      <point x="873" y="249" type="line"/>
      <point x="743" y="249" type="line"/>
      <point x="433" y="749" type="line"/>
      <point x="563" y="749" type="line"/>
    </contour>
  </outline>
</glyph>
<glyph name="c" format="1">
  <advance width="404"/>
  <unicode hex="0063"/>
  <outline>
    <contour>
      <point x="458" y="441" type="curve" smooth="yes"/>
      <point x="458" y="568"/>
      <point x="553" y="644"/>
      <point x="670" y="644" type="curve" smooth="yes"/>
      <point x="708" y="644"/>
      <point x="756" y="633"/>
      <point x="782" y="609" type="curve"/>
      <point x="742" y="506" type="line"/>
      <point x="730" y="521"/>
      <point x="703" y="534"/>
      <point x="680" y="534" type="curve" smooth="yes"/>
      <point x="622" y="534"/>
      <point x="593" y="489"/>
      <point x="593" y="441" type="curve" smooth="yes"/>
      <point x="593" y="393"/>
      <point x="622" y="349"/>
      <point x="680" y="349" type="curve" smooth="yes"/>
      <point x="703" y="349"/>
      <point x="730" y="363"/>
      <point x="742" y="377" type="curve"/>
      <point x="782" y="274" type="line"/>
      <point x="756" y="250"/>
      <point x="708" y="239"/>
      <point x="670" y="239" type="curve" smooth="yes"/>
      <point x="553" y="239"/>
      <point x="458" y="324"/>
    </contour>
  </outline>
</glyph>
<glyph name="d" format="1">
  <advance width="499"/>
  <unicode hex="0064"/>
  <outline>
    <contour>
      <point x="882" y="249" type="line"/>
      <point x="747" y="249" type="line"/>
      <point x="747" y="291" type="line"/>
      <point x="716" y="259"/>
      <point x="675" y="239"/>
      <point x="630" y="239" type="curve" smooth="yes"/>
      <point x="523" y="239"/>
      <point x="458" y="324"/>
      <point x="458" y="441" type="curve" smooth="yes"/>
      <point x="458" y="558"/>
      <point x="523" y="644"/>
      <point x="630" y="644" type="curve" smooth="yes"/>
      <point x="675" y="644"/>
      <point x="716" y="626"/>
      <point x="747" y="595" type="curve"/>
      <point x="747" y="779" type="line"/>
      <point x="882" y="779" type="line"/>
    </contour>
    <contour>
      <point x="747" y="500" type="line"/>
      <point x="728" y="524"/>
      <point x="699" y="539"/>
      <point x="670" y="539" type="curve" smooth="yes"/>
      <point x="622" y="539"/>
      <point x="593" y="499"/>
      <point x="593" y="441" type="curve" smooth="yes"/>
      <point x="593" y="383"/>
      <point x="622" y="344"/>
      <point x="670" y="344" type="curve" smooth="yes"/>
      <point x="699" y="344"/>
      <point x="728" y="358"/>
      <point x="747" y="382" type="curve"/>
    </contour>
  </outline>
</glyph>
<glyph name="g" format="1">
  <advance width="489"/>
  <unicode hex="0067"/>
  <outline>
    <contour>
      <point x="737" y="307" type="line"/>
      <point x="706" y="277"/>
      <point x="665" y="259"/>
      <point x="620" y="259" type="curve" smooth="yes"/>
      <point x="513" y="259"/>
      <point x="458" y="344"/>
      <point x="458" y="451" type="curve" smooth="yes"/>
      <point x="458" y="558"/>
      <point x="513" y="644"/>
      <point x="620" y="644" type="curve" smooth="yes"/>
      <point x="665" y="644"/>
      <point x="706" y="628"/>
      <point x="737" y="599" type="curve"/>
      <point x="737" y="634" type="line"/>
      <point x="872" y="634" type="line"/>
      <point x="872" y="209" type="line" smooth="yes"/>
      <point x="872" y="112"/>
      <point x="777" y="57"/>
      <point x="690" y="57" type="curve" smooth="yes"/>
      <point x="613" y="57"/>
      <point x="543" y="82"/>
      <point x="483" y="119" type="curve"/>
      <point x="523" y="219" type="line"/>
      <point x="573" y="181"/>
      <point x="632" y="167"/>
      <point x="670" y="167" type="curve" smooth="yes"/>
      <point x="718" y="167"/>
      <point x="737" y="181"/>
      <point x="737" y="239" type="curve" smooth="yes"/>
    </contour>
    <contour>
      <point x="737" y="507" type="line"/>
      <point x="718" y="528"/>
      <point x="689" y="539"/>
      <point x="660" y="539" type="curve" smooth="yes"/>
      <point x="612" y="539"/>
      <point x="593" y="499"/>
      <point x="593" y="451" type="curve" smooth="yes"/>
      <point x="593" y="403"/>
      <point x="612" y="364"/>
      <point x="660" y="364" type="curve" smooth="yes"/>
      <point x="689" y="364"/>
      <point x="718" y="375"/>
      <point x="737" y="396" type="curve"/>
    </contour>
  </outline>
</glyph>
<glyph name="i" format="1">
  <advance width="271"/>
  <unicode hex="0069"/>
  <outline>
    <contour>
      <point x="491" y="249" type="line"/>
      <point x="491" y="634" type="line"/>
      <point x="626" y="634" type="line"/>
      <point x="626" y="249" type="line"/>
    </contour>
    <contour>
      <point x="558" y="691" type="line"/>
      <point x="463" y="786" type="line"/>
      <point x="558" y="882" type="line"/>
      <point x="654" y="786" type="line"/>
    </contour>
  </outline>
</glyph>
<glyph name="p" format="1">
  <advance width="499"/>
  <unicode hex="0070"/>
  <outline>
    <contour>
      <point x="463" y="634" type="line"/>
      <point x="598" y="634" type="line"/>
      <point x="598" y="592" type="line"/>
      <point x="629" y="624"/>
      <point x="670" y="644"/>
      <point x="715" y="644" type="curve" smooth="yes"/>
      <point x="822" y="644"/>
      <point x="887" y="559"/>
      <point x="887" y="442" type="curve" smooth="yes"/>
      <point x="887" y="325"/>
      <point x="822" y="239"/>
      <point x="715" y="239" type="curve" smooth="yes"/>
      <point x="670" y="239"/>
      <point x="629" y="257"/>
      <point x="598" y="288" type="curve"/>
      <point x="598" y="104" type="line"/>
      <point x="463" y="104" type="line"/>
    </contour>
    <contour>
      <point x="598" y="383" type="line"/>
      <point x="617" y="359"/>
      <point x="646" y="344"/>
      <point x="675" y="344" type="curve" smooth="yes"/>
      <point x="723" y="344"/>
      <point x="752" y="384"/>
      <point x="752" y="442" type="curve" smooth="yes"/>
      <point x="752" y="500"/>
      <point x="723" y="539"/>
      <point x="675" y="539" type="curve" smooth="yes"/>
      <point x="646" y="539"/>
      <point x="617" y="525"/>
      <point x="598" y="501" type="curve"/>
    </contour>
  </outline>
</glyph>
<glyph name="t" format="1">
  <advance width="325"/>
  <unicode hex="0074"/>
  <outline>
    <contour>
      <point x="443" y="534" type="line"/>
      <point x="443" y="634" type="line"/>
      <point x="513" y="634" type="line"/>
      <point x="513" y="699" type="line"/>
      <point x="648" y="759" type="line"/>
      <point x="648" y="634" type="line"/>
      <point x="728" y="634" type="line"/>
      <point x="728" y="534" type="line"/>
      <point x="648" y="534" type="line"/>
      <point x="648" y="249" type="line"/>
      <point x="513" y="249" type="line"/>
      <point x="513" y="534" type="line"/>
    </contour>
  </outline>
</glyph>
<glyph name="w" format="1">
  <advance width="695"/>
  <unicode hex="0077"/>
  <outline>
    <contour>
      <point x="558" y="249" type="line"/>
      <point x="438" y="634" type="line"/>
      <point x="583" y="634" type="line"/>
      <point x="636" y="377" type="line"/>
      <point x="713" y="634" type="line"/>
      <point x="828" y="634" type="line"/>
      <point x="911" y="377" type="line"/>
      <point x="958" y="634" type="line"/>
      <point x="1103" y="634" type="line"/>
      <point x="993" y="249" type="line"/>
      <point x="848" y="249" type="line"/>
      <point x="772" y="456" type="line"/>
      <point x="703" y="249" type="line"/>
    </contour>
  </outline>
</glyph>
<glyph name="quoteright" format="1">
  <advance width="220"/>
  <unicode hex="2019"/>
  <outline>
    <contour>
      <point x="468" y="489" type="line"/>
      <point x="468" y="749" type="line"/>
      <point x="598" y="749" type="line"/>
      <point x="598" y="609" type="line"/>
    </contour>
  </outline>
</glyph>
<glyph name="quotedblright" format="1">
  <advance width="430"/>
  <unicode hex="201D"/>
  <outline>
    <contour>
      <point x="678" y="489" type="line"/>
      <point x="678" y="749" type="line"/>
      <point x="808" y="749" type="line"/>
      <point x="808" y="609" type="line"/>
    </contour>
    <contour>
      <point x="468" y="489" type="line"/>
      <point x="468" y="749" type="line"/>
      <point x="598" y="749" type="line"/>
      <point x="598" y="609" type="line"/>
    </contour>
  </outline>
</glyph>
